 <svg version="1.0" xmlns="http://www.w3.org/2000/svg" width="100.000000pt" height="100.000000pt" viewBox="0 0 500.000000 500.000000" preserveAspectRatio="xMidYMid meet">  <g transform="translate(0.000000,1000.000000) scale(0.100000,-0.100000)" fill="#d289c2" stroke="none"> <path d="M3788 9031 c-50 -16 -192 -131 -162 -131 6 0 26 16 44 35 51 53 112 85 159 85 55 0 98 -40 149 -138 49 -94 76 -181 102 -325 32 -178 26 -249 -35 -412 -7 -20 -7 -20 8 0 8 12 25 49 36 84 35 106 26 272 -26 481 -28 116 -109 272 -157 303 -30 20 -84 28 -118 18z"></path> <path d="M3520 8963 c0 -5 14 -16 30 -25 17 -9 30 -13 30 -8 0 5 -13 16 -30 25 -16 9 -30 12 -30 8z"></path> <path d="M3372 8929 c-143 -105 -275 -418 -312 -744 -19 -158 3 -312 60 -426 17 -33 62 -94 100 -135 39 -41 70 -80 70 -85 0 -13 -56 20 -127 74 -63 47 -97 98 -89 131 4 15 0 28 -10 37 -22 18 -50 63 -119 194 -70 131 -106 186 -141 214 -42 33 -53 24 -12 -10 24 -19 58 -68 94 -137 70 -131 126 -221 159 -252 14 -13 25 -28 25 -32 0 -18 -58 32 -180 157 -124 125 -208 191 -232 182 -7 -2 3 -11 23 -19 20 -9 89 -70 159 -142 69 -70 146 -141 173 -158 26 -17 46 -33 43 -35 -23 -24 84 -140 179 -194 l51 -29 12 -77 c14 -87 50 -159 88 -173 29 -12 69 2 78 26 11 30 -41 119 -103 176 -32 30 -61 65 -64 79 -4 13 -34 53 -68 88 -69 72 -122 173 -141 269 -20 97 -15 323 9 432 24 105 67 238 112 345 45 105 144 235 192 250 11 4 19 11 19 16 0 13 -2 12 -48 -22z m35 -1524 c53 -76 57 -125 9 -125 -47 0 -106 108 -106 193 l0 30 32 -25 c18 -14 47 -47 65 -73z"></path> <path d="M3608 8865 c99 -175 181 -476 169 -621 -5 -72 -30 -119 -102 -201 -34 -39 -57 -55 -88 -63 -115 -30 -242 -98 -266 -144 -16 -29 -7 -62 20 -77 33 -17 105 26 210 128 l95 92 80 -3 c49 -2 91 -9 111 -19 84 -44 141 -148 162 -295 18 -122 -33 -314 -101 -379 -27 -25 -36 -28 -96 -27 -119 1 -227 67 -401 243 -62 64 -109 107 -103 96 6 -11 68 -76 139 -145 157 -154 236 -200 356 -208 71 -4 75 -3 108 26 78 68 126 230 116 390 -5 82 -10 102 -47 177 -60 126 -131 171 -254 163 l-63 -4 59 70 c59 71 88 136 88 201 0 57 -39 251 -69 341 -39 120 -90 234 -124 275 l-27 34 28 -50z m-48 -951 c-96 -99 -209 -160 -223 -121 -11 31 21 63 108 109 134 69 174 74 115 12z"></path> <path d="M925 8254 c-58 -21 -114 -81 -217 -231 -96 -142 -146 -191 -202 -200 -31 -5 -40 -1 -71 30 -22 22 -35 45 -35 61 0 32 24 93 47 118 9 10 13 21 10 24 -3 4 -20 -15 -36 -42 -44 -69 -43 -124 3 -170 44 -44 85 -45 147 -5 52 33 86 73 193 227 42 61 92 126 112 145 l35 34 25 -29 c20 -23 24 -35 18 -60 -15 -69 -61 -107 -126 -105 l-43 2 40 7 40 7 -37 2 c-41 1 -55 -11 -34 -28 9 -8 28 -10 49 -6 29 6 37 3 46 -13 41 -76 -40 -188 -144 -199 -54 -7 -75 7 -75 49 0 17 -4 27 -10 23 -17 -10 -11 -44 11 -66 18 -18 30 -21 71 -17 l49 5 -22 -23 c-37 -39 -16 -27 31 17 42 40 94 69 123 69 8 0 19 -11 25 -25 8 -17 20 -25 38 -25 24 0 25 -2 13 -19 -8 -11 -49 -71 -91 -134 -110 -164 -178 -216 -247 -187 -36 15 -56 51 -54 101 3 68 37 111 108 135 11 3 15 8 8 11 -36 13 -118 -65 -129 -123 -15 -79 31 -144 101 -144 55 0 135 61 194 148 13 18 41 42 64 54 23 11 48 29 54 39 8 11 20 15 34 12 22 -6 15 -18 -16 -27 -11 -3 -3 -3 17 0 41 5 58 -12 58 -61 0 -96 -132 -187 -211 -145 -19 11 -26 56 -11 76 4 5 -1 1 -11 -10 -20 -21 -15 -53 11 -73 9 -7 37 -13 62 -13 112 0 221 140 166 215 -12 16 -8 23 30 60 48 46 57 85 28 121 -15 18 -15 17 -10 -15 12 -66 -45 -139 -98 -125 l-26 6 28 37 c48 61 192 296 192 313 0 17 -30 -12 -47 -46 -9 -17 -19 -33 -22 -36 -3 -3 -19 -24 -35 -48 -16 -23 -36 -42 -45 -41 -9 1 -41 0 -71 -2 l-55 -2 59 -6 60 -6 -41 -28 c-54 -37 -87 -34 -91 10 -2 21 3 38 16 51 10 10 17 23 15 29 -6 18 101 123 125 123 48 0 11 -66 -63 -111 -33 -21 -27 -26 8 -8 67 34 110 111 72 125 -57 22 -157 -74 -200 -192 0 -1 -12 -4 -27 -8 l-28 -6 20 32 c23 38 26 86 6 113 -12 16 -8 23 30 60 54 51 59 93 17 137 -26 27 -26 28 -5 28 12 0 22 5 22 10 0 6 -1 10 -2 9 -2 0 -21 -7 -43 -15z m199 -362 c-6 -4 -33 -41 -61 -83 -48 -71 -119 -146 -130 -136 -6 7 92 144 135 190 20 20 43 37 52 37 9 0 11 -3 4 -8z"></path> <path d="M2154 8241 c-44 -33 -110 -114 -168 -206 -21 -33 -47 -70 -58 -81 -24 -27 -28 -102 -6 -118 13 -10 4 -31 -59 -136 -41 -69 -82 -133 -92 -143 -16 -17 -18 -15 -48 27 -32 45 -95 86 -133 86 -39 0 -12 82 42 125 44 35 96 57 103 44 11 -17 64 -9 91 14 l27 23 -39 -5 c-34 -4 -36 -5 -14 -11 l25 -6 -25 -7 c-14 -4 -34 -6 -45 -6 -20 0 -20 0 0 9 19 8 19 9 -3 9 -20 1 -22 5 -16 24 20 64 92 164 137 188 10 6 27 7 37 4 19 -6 19 -7 2 -33 -22 -34 -50 -60 -81 -73 -13 -5 -21 -12 -18 -16 13 -12 92 50 112 88 11 20 11 29 2 38 -51 51 -207 -94 -207 -195 0 -25 -6 -32 -45 -47 -57 -24 -103 -76 -111 -126 -6 -36 -9 -39 -45 -44 -72 -9 -120 -61 -133 -140 -13 -85 46 -147 142 -147 132 0 255 119 381 368 36 72 86 132 110 132 11 0 12 3 4 8 -9 6 -7 11 7 20 18 11 20 9 20 -14 0 -40 18 -64 48 -64 31 0 97 42 135 85 l26 30 -6 -36 c-6 -43 10 -79 37 -79 11 0 20 4 20 9 0 5 -9 7 -20 4 -18 -5 -20 0 -20 34 0 69 91 190 155 206 17 4 17 5 -4 6 -36 2 -87 -35 -135 -98 -76 -98 -163 -162 -201 -147 -24 9 -12 79 22 129 58 83 143 136 143 88 0 -21 -54 -78 -82 -87 -10 -3 -18 -10 -18 -16 0 -12 44 14 83 50 17 16 27 36 27 54 0 24 -4 28 -26 28 -43 0 -97 -37 -139 -96 -45 -62 -97 -111 -114 -108 -7 2 -7 0 -1 -3 6 -2 0 -13 -14 -24 -66 -52 -57 6 22 134 108 176 145 223 208 264 11 6 14 12 8 12 -5 1 -28 -12 -50 -28z m-589 -621 c4 -22 11 -40 17 -40 6 0 7 7 4 16 -3 9 -9 27 -13 41 -6 25 -4 26 27 19 43 -8 94 -47 124 -94 l24 -37 -41 -43 c-63 -65 -128 -95 -194 -90 -72 6 -104 37 -110 105 -5 60 26 117 77 144 57 31 77 26 85 -21z"></path> <path d="M2607 8235 c-25 -19 -68 -66 -94 -103 -26 -37 -51 -71 -56 -77 -4 -5 -30 -45 -57 -88 -26 -43 -57 -88 -67 -100 -14 -17 -14 -19 -1 -9 14 11 17 10 23 -7 13 -43 55 -19 129 72 21 26 37 50 34 53 -3 2 -18 -12 -33 -33 -43 -58 -87 -103 -102 -103 -34 0 -5 58 131 263 54 81 94 124 142 154 10 6 14 12 8 12 -6 1 -32 -15 -57 -34z"></path> <path d="M785 8250 c-17 -7 -15 -9 12 -9 17 -1 35 4 38 9 7 12 -22 12 -50 0z"></path> <path d="M850 8250 c0 -13 11 -13 30 0 12 8 11 10 -7 10 -13 0 -23 -4 -23 -10z"></path> <path d="M708 8233 c-10 -2 -18 -8 -18 -13 0 -4 9 -6 20 -3 11 3 20 9 20 14 0 5 -1 8 -2 8 -2 -1 -11 -3 -20 -6z"></path> <path d="M629 8192 c-51 -33 -64 -47 -78 -85 -14 -37 -7 -34 17 7 11 19 40 47 64 62 24 16 45 29 47 31 2 2 2 5 -1 8 -2 3 -24 -8 -49 -23z"></path> <path d="M1271 8167 c-6 -8 -8 -17 -4 -20 7 -8 33 11 33 24 0 13 -16 11 -29 -4z"></path> <path d="M3866 8139 c-32 -25 -33 -40 -5 -65 31 -28 96 -25 134 5 l30 23 63 -68 c160 -172 207 -435 111 -627 -42 -83 -88 -116 -166 -119 -40 -1 -42 -2 -14 -5 88 -11 153 36 202 142 92 205 48 443 -118 624 -94 104 -179 136 -237 90z m114 -10 l45 -20 -33 -21 c-57 -36 -146 -18 -129 26 6 15 39 34 62 35 6 0 30 -9 55 -20z"></path> <path d="M1720 8102 c0 -6 5 -12 12 -14 23 -8 -48 -136 -107 -194 -55 -53 -78 -64 -90 -44 -8 13 32 97 85 178 68 104 26 69 -49 -40 -60 -88 -118 -148 -144 -148 -13 0 -7 40 9 73 9 18 36 63 60 100 47 72 49 77 35 77 -5 0 -23 -22 -41 -50 -72 -112 -167 -200 -216 -200 -59 0 -29 104 56 191 51 54 86 63 84 21 -1 -25 11 -29 20 -7 16 42 -29 59 -83 31 -83 -43 -157 -189 -116 -229 27 -28 66 -20 123 23 50 38 52 39 46 15 -7 -27 9 -55 32 -55 7 0 25 11 41 24 l27 24 11 -22 c20 -41 58 -32 116 28 95 96 151 215 107 224 -10 2 -18 -1 -18 -6z"></path> <path d="M483 8073 c-7 -2 -13 -9 -13 -15 0 -7 5 -7 13 1 8 6 17 8 20 4 4 -3 7 -1 7 5 0 13 -7 14 -27 5z"></path> <path d="M596 8053 c16 -16 31 -24 33 -19 4 11 -35 46 -51 46 -6 0 2 -12 18 -27z"></path> <path d="M530 8009 c0 -20 37 -69 52 -69 7 0 2 10 -9 23 -11 12 -25 31 -31 42 -9 16 -11 17 -12 4z"></path> <path d="M1341 7974 c-39 -27 -34 -31 9 -9 17 9 30 20 30 25 0 12 2 13 -39 -16z"></path> <path d="M1244 7742 c-15 -11 -103 -157 -115 -192 -21 -60 26 -79 82 -32 39 32 33 21 -39 -75 -75 -102 -127 -134 -160 -101 -9 9 -12 9 -12 0 0 -7 11 -17 24 -22 52 -19 124 42 213 180 84 130 143 227 143 234 0 21 -23 -4 -71 -76 -29 -45 -70 -99 -90 -120 -37 -39 -79 -51 -79 -23 0 20 43 105 88 172 33 50 39 71 16 55z"></path> <path d="M2024 7739 c-41 -12 -99 -69 -129 -129 -31 -61 -31 -81 -1 -109 22 -21 26 -22 52 -8 16 8 40 27 53 41 14 14 31 26 38 26 8 0 11 5 8 10 -4 6 -11 8 -16 4 -6 -3 -13 3 -16 15 -3 12 -9 21 -14 21 -14 0 -11 -17 5 -33 12 -12 9 -18 -27 -46 -44 -34 -80 -37 -85 -9 -11 57 104 208 159 208 22 0 29 -5 29 -20 0 -11 5 -20 10 -20 16 0 11 26 -8 43 -10 10 -20 17 -23 16 -2 0 -18 -5 -35 -10z"></path> <path d="M768 7729 c18 -5 38 -18 45 -29 14 -24 29 -27 20 -5 -7 19 -55 45 -80 44 -10 0 -3 -5 15 -10z"></path> <path d="M2136 7670 c-26 -39 -54 -74 -62 -77 -11 -4 -12 -8 -4 -13 8 -5 8 -14 -1 -33 -14 -30 1 -57 30 -57 14 1 14 2 -1 10 -24 14 -10 54 52 150 27 43 50 81 50 84 0 20 -23 -3 -64 -64z"></path> <path d="M2274 7693 c-33 -58 -68 -107 -108 -153 -23 -25 -25 -29 -7 -15 28 23 24 15 -30 -65 -20 -31 -56 -73 -79 -94 -37 -33 -46 -37 -76 -31 -40 7 -45 -1 -8 -15 54 -21 140 54 222 190 23 38 64 105 92 150 32 52 45 80 36 80 -8 0 -27 -21 -42 -47z"></path> <path d="M731 7684 c-1 -32 31 -84 51 -84 7 0 1 11 -11 24 -13 14 -27 40 -31 58 l-8 33 -1 -31z"></path> <path d="M2057 7670 c-33 -10 -57 -28 -57 -43 0 -6 10 -1 23 11 32 30 51 29 37 0 -10 -21 -9 -21 9 2 17 21 27 42 19 39 -2 0 -16 -5 -31 -9z"></path> </g> </svg> 